<svg height="86" viewBox="0 0 383 86" width="383" xmlns="http://www.w3.org/2000/svg"><g fill-rule="evenodd" transform="translate(0 -2)"><g transform="translate(0 2)"><path d="m2.38091342 61.4199219c3.51557194 6.5137148 9.70678228 9.5166445 16.76357408 10.1475 4.3664547 6.3700547 10.0838525 10.4325781 16.3554564 10.4325781 6.2690542 0 11.9846521-4.0596406 16.3505068-10.4252109 7.0617415-.631336 13.2526518-3.6408321 16.7685237-10.1548672 3.4873742-6.4445274 2.8677732-13.6137617-.0908928-20.4205625 2.9570161-6.7970313 3.5845665-13.9630625.0908928-20.4192813-3.5095724-6.502664-9.6991328-9.5091172-16.7599744-10.1422148-4.3670546-6.37325783-10.0858022-10.4378633-16.3590561-10.4378633-6.2732538 0-11.9917015 4.06460547-16.3587561 10.437543-7.0614415.6330976-13.25055198 3.6398711-16.76027438 10.1425351-3.48737418 6.4445274-2.86777318 13.6134414.09089281 20.4202422-2.95686614 6.7970313-3.5844165 13.9633828-.09089281 20.4196016zm19.07939098-46.3283985c2.047188-.0360351 4.1698202.1513477 6.3109008.5017696-1.6116225.784125-3.1791485 1.6172578-4.6451326 2.5211797-1.529729.9431601-3.0539084 2.0229335-4.5573895 3.1779804.8322841-2.2578828 1.8034573-4.3331875 2.8916213-6.2009297zm30.9707504 6.1996485c-1.5012313-1.1528047-3.0248108-2.2322578-4.5570896-3.1768594-1.4629843-.9015195-3.0264606-1.7325703-4.6338835-2.5149336 2.1361311-.3496211 4.2563634-.5389258 6.3017516-.504332 1.086964 1.8667812 2.0572373 3.9404843 2.8892215 6.196125zm-2.8812721 45.6008086c-2.0419385.0345937-4.1576712-.1551914-6.2884027-.5017696 1.6005235-.7801211 3.1575503-1.6079687 4.6125852-2.5046836 1.529729-.9431601 3.0539085-2.0229336 4.5573896-3.1779804-.8300344 2.2511562-1.7976079 4.3211758-2.8815721 6.1844336zm10.4483236-31.3773321c1.3248452 1.7724493 2.516201 3.6078399 3.4977233 5.4856719-.9815223 1.8773516-2.1731781 3.712582-3.4977233 5.4843906.1474383-1.7987148.2498802-3.6201718.2498802-5.4847109s-.1024419-3.6861562-.2498802-5.4853516zm-14.3739631-13.2383554c2.9993127 1.8486836 6.1309151 4.304039 9.0313856 7.1410468.6969949 3.6408321 1.0928136 7.5273438 1.0928136 11.5826602 0 4.0545156-.3955187 7.9402266-1.0922136 11.580418-2.9028704 2.8398906-6.0362726 5.2968476-9.0319856 7.1434492-2.9507166 1.8176133-6.4415405 3.4620976-10.1249492 4.7185234-3.6856585-1.2572265-7.1764824-2.9023515-10.1234493-4.7185234-2.9993128-1.8486836-6.1309151-4.3040391-9.0313857-7.1410469-.6969949-3.640832-1.0928136-7.5273437-1.0928136-11.5826601 0-4.0545157.3955188-7.9402266 1.0922137-11.580418 2.9028704-2.8398906 6.0362725-5.2970078 9.0319856-7.1434492 2.9630156-1.8264219 6.4544395-3.4725078 10.1318486-4.7295743 3.654311 1.2527422 7.1364356 2.8929024 10.1165499 4.7295743zm-34.6223616 24.2090586c-1.32484525-1.7724493-2.516501-3.6081602-3.49772339-5.4859922.98182234-1.8773516 2.17317812-3.7122617 3.49772339-5.4842305-.1474384 1.798875-.2498803 3.620332-.2498803 5.4848711s.1024419 3.6861562.2498803 5.4853516zm12.124141 17.4003359c1.4560849.8976758 3.0122118 1.7248828 4.6109353 2.5050039-2.1302815.3465781-4.2461641.5355625-6.2872027.5008086-1.0836643-1.8630977-2.0509378-3.9324766-2.8806721-6.1826719 1.5010812 1.1528047 3.0248107 2.2322578 4.5569395 3.1768594zm12.3740213 13.309625c-3.9143904 0-7.560152-2.1797266-10.6608568-5.6161992 3.5260711-.2618555 7.1358356-.9809571 10.6515576-2.0818711 3.5214214 1.1052383 7.1353856 1.8257812 10.6641565 2.087957-3.0996548 3.4326289-6.7428667 5.6101133-10.6548573 5.6101133zm29.2257885-18.1777344c-2.1358311 3.9528164-5.6413538 6.2108594-9.8108741 7.2270508 1.5862746-3.3152344 2.8569741-7.0443125 3.7647023-11.0716016 2.6496904-2.7087226 5.0337518-5.6941953 7.0023461-8.8308554 1.2570506 4.3610547 1.176507 8.7281953-.9561743 12.6754062zm0-36.0351562c2.1335812 3.948332 2.2144248 8.3146718.9576742 12.674125-1.9669444-3.1366602-4.3510058-6.1246953-7.0054959-8.8372617-.9084781-4.0284102-2.1800776-7.75925-3.768002-11.075125 4.1714701 1.0192343 7.6777428 3.2816015 9.8158237 7.2382617zm-29.2257885-18.1777344c3.9157403 0 7.5627019 2.18100781 10.6641566 5.6197227-3.5293709.260414-7.143635.9782343-10.6647565 2.0809101-3.5214215-1.1029961-7.1350857-1.8204961-10.6635566-2.0809101 3.1014547-3.43871489 6.7484162-5.6197227 10.6641565-5.6197227zm-29.22578841 18.1777344c2.13448117-3.9497735 5.64015391-6.2140625 9.81552361-7.237461-1.5888243 3.3179571-2.8608737 7.0507188-3.7693518 11.0821719-2.64969045 2.7087227-5.03375189 5.6941953-7.00234619 8.8308555-1.25705057-4.3612149-1.17650694-8.7283555.95617438-12.6755664zm6.04782161 32.1981328c.9074283 4.0237656 2.1775278 7.7504414 3.7627524 11.0631133-4.1698202-1.0163516-7.67504292-3.2742344-9.81057401-7.2260899-2.13358125-3.948332-2.21412488-8.3146719-.95737428-12.674125 1.96694443 3.1366602 4.3505559 6.1242149 7.00519589 8.8371016z" fill-rule="nonzero"/><ellipse cx="36" cy="26.5" rx="11" ry="5.5"/><path d="m36 36.8c-6.072 0-11-2.16-11-4.8v7.2c0 2.64 4.928 4.8 11 4.8s11-2.16 11-4.8v-7.2c0 2.64-4.928 4.8-11 4.8z"/><path d="m36 49.8c-6.072 0-11-2.16-11-4.8v7.2c0 2.64 4.928 4.8 11 4.8s11-2.16 11-4.8v-7.2c0 2.64-4.928 4.8-11 4.8z"/></g><text font-family="Montserrat-Bold, Montserrat" font-size="42" font-weight="bold" letter-spacing="6.07894564"><tspan x="81" y="43">Serverless</tspan> <tspan x="81" y="84">Bootstrap</tspan></text><text font-family="Montserrat-Black, Montserrat" font-size="23" font-weight="800" letter-spacing="6.94737"><tspan x="362" y="22">™</tspan></text></g></svg>