<svg height="85" viewBox="0 0 385 85" width="385" xmlns="http://www.w3.org/2000/svg"><g fill="#fff" fill-rule="evenodd" transform="translate(0 -3)"><g transform="translate(0 3)"><path d="m2.51504938 59.921875c3.71363234 6.3548437 10.25364322 9.2845312 17.70800082 9.9 4.6124521 6.2146875 10.6519568 10.178125 17.2768906 10.178125 6.6222403 0 12.6598437-3.960625 17.2716621-10.1709375 7.459586-.6159375 13.99928-3.5520313 17.7132293-9.9071875 3.6838459-6.2873438 3.0293378-13.2817188-.0960136-19.9225 3.1236086-6.63125 3.7865139-13.6225.0960136-19.92125-3.7072949-6.3440625-10.2455629-9.2771875-17.7041984-9.8948438-4.6130858-6.21781245-10.6540165-10.1832812-17.280693-10.1832812-6.6266766 0-12.6672904 3.96546875-17.2803762 10.1829687-7.4592692.6176563-13.99706197 3.5510938-17.70451522 9.8951563-3.68384595 6.2873437-3.02933786 13.2814062.09601354 19.9221875-3.12345014 6.63125-3.78635546 13.6228125-.09601354 19.9215625zm20.15428622-45.1984375c2.1625226-.0351562 4.4047396.1476563 6.6664446.4895313-1.7024182.765-3.3582556 1.5778124-4.9068303 2.4596874-1.6159109.9201563-3.2259596 1.9735938-4.8141438 3.1004688.8791734-2.2028125 1.9050606-4.2275 3.0545295-6.0496875zm32.7155814 6.0484375c-1.5858076-1.1246875-3.1952226-2.1778125-4.813827-3.099375-1.5454059-.8795312-3.1969654-1.6903125-4.8949473-2.4535937 2.2564764-.3410938 4.4961584-.5257813 6.6567798-.4920313 1.1482014 1.82125 2.173138 3.844375 3.0519945 6.045zm-3.0435973 44.4885937c-2.1569773.03375-4.3919061-.1514062-6.6426788-.4895312 1.6906937-.7610938 3.3354404-1.56875 4.8724491-2.4435937 1.615911-.9201563 3.2259597-1.9735938 4.8141439-3.1004688-.8767968 2.19625-1.8988815 4.2157812-3.0439142 6.0335937zm11.0369616-30.6120312c1.3994844 1.7292187 2.6579588 3.5198437 3.6947782 5.351875-1.0368194 1.8315625-2.2956107 3.6220313-3.6947782 5.350625.1557447-1.7548437.263958-3.531875.263958-5.3509375s-.1082133-3.59625-.263958-5.3515625zm-15.1837639-12.9154688c3.1682882 1.8035938 6.4763188 4.1990625 9.5401962 6.966875.7362622 3.5520313 1.1543805 7.34375 1.1543805 11.3001563 0 3.955625-.4178015 7.7465625-1.1537468 11.2979687-3.0664124 2.770625-6.3763442 5.1676563-9.5408299 6.9692188-3.1169541 1.7732812-6.8044442 3.3776562-10.6953688 4.6034375-3.8933012-1.2265625-7.5807913-2.8315625-10.6937845-4.6034375-3.1682881-1.8035938-6.4763188-4.1990625-9.5401961-6.966875-.7362622-3.5520313-1.1543806-7.34375-1.1543806-11.3001563 0-3.955625.4178015-7.7465625 1.1537468-11.2979687 3.0664124-2.770625 6.3763443-5.1678125 9.5408299-6.9692188 3.1299461-1.781875 6.8180699-3.3878125 10.702657-4.6142187 3.8601877 1.2221875 7.5384883 2.8223437 10.6864963 4.6142187zm-36.5729172 23.6185938c-1.3994843-1.7292187-2.65827562-3.5201562-3.69477815-5.3521875 1.03713628-1.8315625 2.29561065-3.6217188 3.69477815-5.3504688-.1557447 1.755-.263958 3.5320313-.263958 5.3510938s.1082133 3.59625.263958 5.3515625zm12.8071913 16.9759375c1.5381178.8757812 3.1819138 1.6828125 4.8707063 2.4439062-2.2502974.338125-4.4853847.5225-6.6414113.4885938-1.1447158-1.8176563-2.1664836-3.8365625-3.0429636-6.031875 1.5856493 1.1246875 3.1952227 2.1778125 4.8136686 3.099375zm13.0711493 12.985c-4.1349195 0-7.9860761-2.1265625-11.2614685-5.4792188 3.724723-.2554687 7.5378545-.9570312 11.2516453-2.0310937 3.7198114 1.0782812 7.5373792 1.78125 11.2649541 2.0370312-3.2742833 3.3489063-7.1227465 5.4732813-11.2551309 5.4732813zm30.8723117-17.734375c-2.2561596 3.8564063-5.9591766 6.059375-10.3635993 7.0507813 1.6756421-3.234375 3.0179303-6.8725 3.9767981-10.8015625 2.7989688-2.6426563 5.3173435-5.5553125 7.3968446-8.6154688 1.3278703 4.2546875 1.242789 8.5153125-1.0100434 12.36625zm0-35.15625c2.253783 3.8520312 2.3391812 8.111875 1.0116277 12.365-2.0777582-3.0601563-4.5961329-5.9753125-7.4001717-8.6217188-.95966-3.9301562-2.3028988-7.57-3.9802838-10.805 4.4064825.9943751 8.1102916 3.2015625 10.3688278 7.0617188zm-30.8723117-17.734375c4.1363453 0 7.9887695 2.1278125 11.2649541 5.4826562-3.7282087.2540625-7.5460933.954375-11.2655879 2.0301563-3.7198114-1.0760938-7.5370623-1.7760938-11.2643203-2.0301563 3.2761845-3.3548437 7.1286087-5.4826562 11.2649541-5.4826562zm-30.87231176 17.734375c2.25473363-3.8534375 5.95790906-6.0625 10.36851086-7.0609375-1.6783355 3.2370312-3.0220497 6.87875-3.9817097 10.811875-2.7989687 2.6426562-5.3173435 5.5553125-7.39684452 8.6154687-1.32787032-4.2548437-1.24278902-8.5154687 1.01004336-12.3664062zm6.38854396 31.4128125c.958551 3.925625 2.3002054 7.5614063 3.9747385 10.7932813-4.4047397-.9915625-8.10743976-3.194375-10.36328246-7.0498438-2.25378301-3.8520313-2.33886431-8.111875-1.01131086-12.365 2.0777582 3.0601562 4.59565762 5.9748437 7.39985482 8.6215625z" fill-rule="nonzero"/><ellipse cx="38.5" cy="28.5" rx="11.5" ry="4.5"/><path d="m38.5 37.4c-6.348 0-11.5-1.98-11.5-4.4v6.6c0 2.42 5.152 4.4 11.5 4.4s11.5-1.98 11.5-4.4v-6.6c0 2.42-5.152 4.4-11.5 4.4z"/><path d="m38.5 49.4c-6.348 0-11.5-1.98-11.5-4.4v6.6c0 2.42 5.152 4.4 11.5 4.4s11.5-1.98 11.5-4.4v-6.6c0 2.42-5.152 4.4-11.5 4.4z"/></g><text font-family="Montserrat-Bold, Montserrat" font-size="42" font-weight="bold" letter-spacing="6.07894564"><tspan x="83" y="43">Serverless</tspan> <tspan x="83" y="84">Bootstrap</tspan></text><text font-family="Montserrat-Black, Montserrat" font-size="23" font-weight="800" letter-spacing="6.94737"><tspan x="364" y="22">™</tspan></text></g></svg>